<svg width="18" height="16" viewBox="0 0 18 16" fill="none" xmlns="http://www.w3.org/2000/svg">
<path d="M7.32236 1.23748C7.85046 -0.387848 10.1499 -0.387847 10.678 1.23748L11.3766 3.38771C11.6128 4.11458 12.2901 4.60671 13.0544 4.60671H15.3153C17.0243 4.60671 17.7348 6.79357 16.3522 7.79808L14.5232 9.127C13.9048 9.57623 13.6461 10.3725 13.8823 11.0994L14.5809 13.2496C15.109 14.8749 13.2488 16.2265 11.8662 15.222L10.0371 13.8931C9.41879 13.4438 8.58154 13.4438 7.96322 13.8931L6.13413 15.222C4.75154 16.2265 2.89128 14.8749 3.41938 13.2496L4.11804 11.0994C4.35421 10.3725 4.09548 9.57623 3.47717 9.127L1.64808 7.79808C0.26549 6.79357 0.976046 4.60671 2.68502 4.60671H4.9459C5.71018 4.60671 6.38753 4.11458 6.62371 3.38771L7.32236 1.23748Z" fill="#FF8A00"/>
</svg>
